<?xml version="1.0" encoding="iso-8859-1"?>
<!-- Generator: Adobe Illustrator 21.0.0, SVG Export Plug-In . SVG Version: 6.00 Build 0)  -->
<svg version="1.1" id="Capa_1" xmlns="http://www.w3.org/2000/svg" xmlns:xlink="http://www.w3.org/1999/xlink" x="0px" y="0px"
	 viewBox="0 0 966.653 966.653" style="enable-background:new 0 0 966.653 966.653;" xml:space="preserve">
<g>
	<g id="keyboard_1_">
		
			<linearGradient id="SVGID_1_" gradientUnits="userSpaceOnUse" x1="483.3267" y1="834.3115" x2="483.3267" y2="103.9566" gradientTransform="matrix(1 0 0 -1 0 949.7782)">
			<stop  offset="0" style="stop-color:#FFF33B"/>
			<stop  offset="0.014" style="stop-color:#FEE72E"/>
			<stop  offset="0.042" style="stop-color:#FED51B"/>
			<stop  offset="0.07" style="stop-color:#FDCA10"/>
			<stop  offset="0.1" style="stop-color:#FDC70C"/>
			<stop  offset="0.4" style="stop-color:#F3903F"/>
			<stop  offset="0.8" style="stop-color:#ED683C"/>
			<stop  offset="1" style="stop-color:#E93E3A"/>
		</linearGradient>
		<path style="fill:url(#SVGID_1_);" d="M950.542,402.772H499.019c10.662-13.862,16.471-30.845,16.53-48.333
			c-0.053-44.467-36.088-80.501-80.554-80.554H144.998c-26.693,0-48.333-21.639-48.333-48.333s21.639-48.333,48.333-48.333h289.996
			v-32.222H144.998c-44.489,0-80.554,36.065-80.554,80.554s36.065,80.554,80.554,80.554h289.996
			c26.693,0,48.333,21.639,48.333,48.333s-21.639,48.333-48.333,48.333l0,0H16.111C7.213,402.772,0,409.985,0,418.883v386.661
			c0,8.898,7.213,16.111,16.111,16.111h934.432c8.898,0,16.111-7.213,16.111-16.111V418.883
			C966.653,409.985,959.44,402.772,950.542,402.772z M934.432,789.434H32.222v-354.44h902.21V789.434z"/>
		
			<linearGradient id="SVGID_2_" gradientUnits="userSpaceOnUse" x1="483.3267" y1="834.3115" x2="483.3267" y2="103.9566" gradientTransform="matrix(1 0 0 -1 0 949.7782)">
			<stop  offset="0" style="stop-color:#FFF33B"/>
			<stop  offset="0.014" style="stop-color:#FEE72E"/>
			<stop  offset="0.042" style="stop-color:#FED51B"/>
			<stop  offset="0.07" style="stop-color:#FDCA10"/>
			<stop  offset="0.1" style="stop-color:#FDC70C"/>
			<stop  offset="0.4" style="stop-color:#F3903F"/>
			<stop  offset="0.8" style="stop-color:#ED683C"/>
			<stop  offset="1" style="stop-color:#E93E3A"/>
		</linearGradient>
		<path style="fill:url(#SVGID_2_);" d="M708.879,676.657H257.774c-8.898,0-16.111,7.213-16.111,16.111v48.333
			c0,8.898,7.213,16.111,16.111,16.111h451.105c8.898,0,16.111-7.213,16.111-16.111v-48.333
			C724.99,683.87,717.777,676.657,708.879,676.657z M692.768,724.99H273.885v-16.111h418.883V724.99z"/>
		
			<linearGradient id="SVGID_3_" gradientUnits="userSpaceOnUse" x1="781.3781" y1="834.3115" x2="781.3781" y2="103.9566" gradientTransform="matrix(1 0 0 -1 0 949.7782)">
			<stop  offset="0" style="stop-color:#FFF33B"/>
			<stop  offset="0.014" style="stop-color:#FEE72E"/>
			<stop  offset="0.042" style="stop-color:#FED51B"/>
			<stop  offset="0.07" style="stop-color:#FDCA10"/>
			<stop  offset="0.1" style="stop-color:#FDC70C"/>
			<stop  offset="0.4" style="stop-color:#F3903F"/>
			<stop  offset="0.8" style="stop-color:#ED683C"/>
			<stop  offset="1" style="stop-color:#E93E3A"/>
		</linearGradient>
		<path style="fill:url(#SVGID_3_);" d="M757.212,757.212h48.333c8.898,0,16.111-7.213,16.111-16.111v-48.333
			c0-8.898-7.213-16.111-16.111-16.111h-48.333c-8.898,0-16.111,7.213-16.111,16.111v48.333
			C741.101,749.999,748.314,757.212,757.212,757.212z M773.323,708.879h16.111v16.111h-16.111V708.879z"/>
		
			<linearGradient id="SVGID_4_" gradientUnits="userSpaceOnUse" x1="878.0435" y1="834.3115" x2="878.0435" y2="103.9566" gradientTransform="matrix(1 0 0 -1 0 949.7782)">
			<stop  offset="0" style="stop-color:#FFF33B"/>
			<stop  offset="0.014" style="stop-color:#FEE72E"/>
			<stop  offset="0.042" style="stop-color:#FED51B"/>
			<stop  offset="0.07" style="stop-color:#FDCA10"/>
			<stop  offset="0.1" style="stop-color:#FDC70C"/>
			<stop  offset="0.4" style="stop-color:#F3903F"/>
			<stop  offset="0.8" style="stop-color:#ED683C"/>
			<stop  offset="1" style="stop-color:#E93E3A"/>
		</linearGradient>
		<path style="fill:url(#SVGID_4_);" d="M902.21,676.657h-48.333c-8.898,0-16.111,7.213-16.111,16.111v48.333
			c0,8.898,7.213,16.111,16.111,16.111h48.333c8.898,0,16.111-7.213,16.111-16.111v-48.333
			C918.321,683.87,911.108,676.657,902.21,676.657z M886.099,724.99h-16.111v-16.111h16.111V724.99z"/>
		
			<linearGradient id="SVGID_5_" gradientUnits="userSpaceOnUse" x1="781.3781" y1="834.3115" x2="781.3781" y2="103.9566" gradientTransform="matrix(1 0 0 -1 0 949.7782)">
			<stop  offset="0" style="stop-color:#FFF33B"/>
			<stop  offset="0.014" style="stop-color:#FEE72E"/>
			<stop  offset="0.042" style="stop-color:#FED51B"/>
			<stop  offset="0.07" style="stop-color:#FDCA10"/>
			<stop  offset="0.1" style="stop-color:#FDC70C"/>
			<stop  offset="0.4" style="stop-color:#F3903F"/>
			<stop  offset="0.8" style="stop-color:#ED683C"/>
			<stop  offset="1" style="stop-color:#E93E3A"/>
		</linearGradient>
		<path style="fill:url(#SVGID_5_);" d="M757.212,660.546h48.333c8.898,0,16.111-7.213,16.111-16.111v-48.333
			c0-8.898-7.213-16.111-16.111-16.111h-48.333c-8.898,0-16.111,7.213-16.111,16.111v48.333
			C741.101,653.333,748.314,660.546,757.212,660.546z M773.323,612.214h16.111v16.111h-16.111V612.214z"/>
		
			<linearGradient id="SVGID_6_" gradientUnits="userSpaceOnUse" x1="878.0435" y1="834.3115" x2="878.0435" y2="103.9566" gradientTransform="matrix(1 0 0 -1 0 949.7782)">
			<stop  offset="0" style="stop-color:#FFF33B"/>
			<stop  offset="0.014" style="stop-color:#FEE72E"/>
			<stop  offset="0.042" style="stop-color:#FED51B"/>
			<stop  offset="0.07" style="stop-color:#FDCA10"/>
			<stop  offset="0.1" style="stop-color:#FDC70C"/>
			<stop  offset="0.4" style="stop-color:#F3903F"/>
			<stop  offset="0.8" style="stop-color:#ED683C"/>
			<stop  offset="1" style="stop-color:#E93E3A"/>
		</linearGradient>
		<path style="fill:url(#SVGID_6_);" d="M902.21,579.992h-48.333c-8.898,0-16.111,7.213-16.111,16.111v48.333
			c0,8.898,7.213,16.111,16.111,16.111h48.333c8.898,0,16.111-7.213,16.111-16.111v-48.333
			C918.321,587.205,911.108,579.992,902.21,579.992z M886.099,628.325h-16.111v-16.111h16.111V628.325z"/>
		
			<linearGradient id="SVGID_7_" gradientUnits="userSpaceOnUse" x1="88.6099" y1="834.3115" x2="88.6099" y2="103.9566" gradientTransform="matrix(1 0 0 -1 0 949.7782)">
			<stop  offset="0" style="stop-color:#FFF33B"/>
			<stop  offset="0.014" style="stop-color:#FEE72E"/>
			<stop  offset="0.042" style="stop-color:#FED51B"/>
			<stop  offset="0.07" style="stop-color:#FDCA10"/>
			<stop  offset="0.1" style="stop-color:#FDC70C"/>
			<stop  offset="0.4" style="stop-color:#F3903F"/>
			<stop  offset="0.8" style="stop-color:#ED683C"/>
			<stop  offset="1" style="stop-color:#E93E3A"/>
		</linearGradient>
		<path style="fill:url(#SVGID_7_);" d="M112.776,676.657H64.444c-8.898,0-16.111,7.213-16.111,16.111v48.333
			c0,8.898,7.213,16.111,16.111,16.111h48.333c8.898,0,16.111-7.213,16.111-16.111v-48.333
			C128.887,683.87,121.674,676.657,112.776,676.657z M96.665,724.99H80.554v-16.111h16.111V724.99z"/>
		
			<linearGradient id="SVGID_8_" gradientUnits="userSpaceOnUse" x1="185.2752" y1="834.3115" x2="185.2752" y2="103.9566" gradientTransform="matrix(1 0 0 -1 0 949.7782)">
			<stop  offset="0" style="stop-color:#FFF33B"/>
			<stop  offset="0.014" style="stop-color:#FEE72E"/>
			<stop  offset="0.042" style="stop-color:#FED51B"/>
			<stop  offset="0.07" style="stop-color:#FDCA10"/>
			<stop  offset="0.1" style="stop-color:#FDC70C"/>
			<stop  offset="0.4" style="stop-color:#F3903F"/>
			<stop  offset="0.8" style="stop-color:#ED683C"/>
			<stop  offset="1" style="stop-color:#E93E3A"/>
		</linearGradient>
		<path style="fill:url(#SVGID_8_);" d="M209.442,676.657h-48.333c-8.898,0-16.111,7.213-16.111,16.111v48.333
			c0,8.898,7.213,16.111,16.111,16.111h48.333c8.898,0,16.111-7.213,16.111-16.111v-48.333
			C225.552,683.87,218.339,676.657,209.442,676.657z M193.331,724.99H177.22v-16.111h16.111V724.99z"/>
		
			<linearGradient id="SVGID_9_" gradientUnits="userSpaceOnUse" x1="88.6099" y1="834.3115" x2="88.6099" y2="103.9566" gradientTransform="matrix(1 0 0 -1 0 949.7782)">
			<stop  offset="0" style="stop-color:#FFF33B"/>
			<stop  offset="0.014" style="stop-color:#FEE72E"/>
			<stop  offset="0.042" style="stop-color:#FED51B"/>
			<stop  offset="0.07" style="stop-color:#FDCA10"/>
			<stop  offset="0.1" style="stop-color:#FDC70C"/>
			<stop  offset="0.4" style="stop-color:#F3903F"/>
			<stop  offset="0.8" style="stop-color:#ED683C"/>
			<stop  offset="1" style="stop-color:#E93E3A"/>
		</linearGradient>
		<path style="fill:url(#SVGID_9_);" d="M112.776,579.992H64.444c-8.898,0-16.111,7.213-16.111,16.111v48.333
			c0,8.898,7.213,16.111,16.111,16.111h48.333c8.898,0,16.111-7.213,16.111-16.111v-48.333
			C128.887,587.205,121.674,579.992,112.776,579.992z M96.665,628.325H80.554v-16.111h16.111V628.325z"/>
		
			<linearGradient id="SVGID_10_" gradientUnits="userSpaceOnUse" x1="185.2752" y1="834.3115" x2="185.2752" y2="103.9566" gradientTransform="matrix(1 0 0 -1 0 949.7782)">
			<stop  offset="0" style="stop-color:#FFF33B"/>
			<stop  offset="0.014" style="stop-color:#FEE72E"/>
			<stop  offset="0.042" style="stop-color:#FED51B"/>
			<stop  offset="0.07" style="stop-color:#FDCA10"/>
			<stop  offset="0.1" style="stop-color:#FDC70C"/>
			<stop  offset="0.4" style="stop-color:#F3903F"/>
			<stop  offset="0.8" style="stop-color:#ED683C"/>
			<stop  offset="1" style="stop-color:#E93E3A"/>
		</linearGradient>
		<path style="fill:url(#SVGID_10_);" d="M209.442,579.992h-48.333c-8.898,0-16.111,7.213-16.111,16.111v48.333
			c0,8.898,7.213,16.111,16.111,16.111h48.333c8.898,0,16.111-7.213,16.111-16.111v-48.333
			C225.552,587.205,218.339,579.992,209.442,579.992z M193.331,628.325H177.22v-16.111h16.111V628.325z"/>
		
			<linearGradient id="SVGID_11_" gradientUnits="userSpaceOnUse" x1="281.9406" y1="834.3115" x2="281.9406" y2="103.9566" gradientTransform="matrix(1 0 0 -1 0 949.7782)">
			<stop  offset="0" style="stop-color:#FFF33B"/>
			<stop  offset="0.014" style="stop-color:#FEE72E"/>
			<stop  offset="0.042" style="stop-color:#FED51B"/>
			<stop  offset="0.07" style="stop-color:#FDCA10"/>
			<stop  offset="0.1" style="stop-color:#FDC70C"/>
			<stop  offset="0.4" style="stop-color:#F3903F"/>
			<stop  offset="0.8" style="stop-color:#ED683C"/>
			<stop  offset="1" style="stop-color:#E93E3A"/>
		</linearGradient>
		<path style="fill:url(#SVGID_11_);" d="M257.774,660.546h48.333c8.898,0,16.111-7.213,16.111-16.111v-48.333
			c0-8.898-7.213-16.111-16.111-16.111h-48.333c-8.898,0-16.111,7.213-16.111,16.111v48.333
			C241.663,653.333,248.876,660.546,257.774,660.546z M273.885,612.214h16.111v16.111h-16.111V612.214z"/>
		
			<linearGradient id="SVGID_12_" gradientUnits="userSpaceOnUse" x1="378.6059" y1="834.3115" x2="378.6059" y2="103.9566" gradientTransform="matrix(1 0 0 -1 0 949.7782)">
			<stop  offset="0" style="stop-color:#FFF33B"/>
			<stop  offset="0.014" style="stop-color:#FEE72E"/>
			<stop  offset="0.042" style="stop-color:#FED51B"/>
			<stop  offset="0.07" style="stop-color:#FDCA10"/>
			<stop  offset="0.1" style="stop-color:#FDC70C"/>
			<stop  offset="0.4" style="stop-color:#F3903F"/>
			<stop  offset="0.8" style="stop-color:#ED683C"/>
			<stop  offset="1" style="stop-color:#E93E3A"/>
		</linearGradient>
		<path style="fill:url(#SVGID_12_);" d="M354.44,660.546h48.333c8.898,0,16.111-7.213,16.111-16.111v-48.333
			c0-8.898-7.213-16.111-16.111-16.111H354.44c-8.898,0-16.111,7.213-16.111,16.111v48.333
			C338.329,653.333,345.542,660.546,354.44,660.546z M370.55,612.214h16.111v16.111H370.55V612.214z"/>
		
			<linearGradient id="SVGID_13_" gradientUnits="userSpaceOnUse" x1="281.9406" y1="834.3115" x2="281.9406" y2="103.9566" gradientTransform="matrix(1 0 0 -1 0 949.7782)">
			<stop  offset="0" style="stop-color:#FFF33B"/>
			<stop  offset="0.014" style="stop-color:#FEE72E"/>
			<stop  offset="0.042" style="stop-color:#FED51B"/>
			<stop  offset="0.07" style="stop-color:#FDCA10"/>
			<stop  offset="0.1" style="stop-color:#FDC70C"/>
			<stop  offset="0.4" style="stop-color:#F3903F"/>
			<stop  offset="0.8" style="stop-color:#ED683C"/>
			<stop  offset="1" style="stop-color:#E93E3A"/>
		</linearGradient>
		<path style="fill:url(#SVGID_13_);" d="M257.774,563.881h48.333c8.898,0,16.111-7.213,16.111-16.111v-48.333
			c0-8.898-7.213-16.111-16.111-16.111h-48.333c-8.898,0-16.111,7.213-16.111,16.111v48.333
			C241.663,556.668,248.876,563.881,257.774,563.881z M273.885,515.548h16.111v16.111h-16.111V515.548z"/>
		
			<linearGradient id="SVGID_14_" gradientUnits="userSpaceOnUse" x1="378.6059" y1="834.3115" x2="378.6059" y2="103.9566" gradientTransform="matrix(1 0 0 -1 0 949.7782)">
			<stop  offset="0" style="stop-color:#FFF33B"/>
			<stop  offset="0.014" style="stop-color:#FEE72E"/>
			<stop  offset="0.042" style="stop-color:#FED51B"/>
			<stop  offset="0.07" style="stop-color:#FDCA10"/>
			<stop  offset="0.1" style="stop-color:#FDC70C"/>
			<stop  offset="0.4" style="stop-color:#F3903F"/>
			<stop  offset="0.8" style="stop-color:#ED683C"/>
			<stop  offset="1" style="stop-color:#E93E3A"/>
		</linearGradient>
		<path style="fill:url(#SVGID_14_);" d="M354.44,563.881h48.333c8.898,0,16.111-7.213,16.111-16.111v-48.333
			c0-8.898-7.213-16.111-16.111-16.111H354.44c-8.898,0-16.111,7.213-16.111,16.111v48.333
			C338.329,556.668,345.542,563.881,354.44,563.881z M370.55,515.548h16.111v16.111H370.55V515.548z"/>
		
			<linearGradient id="SVGID_15_" gradientUnits="userSpaceOnUse" x1="88.6099" y1="834.3115" x2="88.6099" y2="103.9566" gradientTransform="matrix(1 0 0 -1 0 949.7782)">
			<stop  offset="0" style="stop-color:#FFF33B"/>
			<stop  offset="0.014" style="stop-color:#FEE72E"/>
			<stop  offset="0.042" style="stop-color:#FED51B"/>
			<stop  offset="0.07" style="stop-color:#FDCA10"/>
			<stop  offset="0.1" style="stop-color:#FDC70C"/>
			<stop  offset="0.4" style="stop-color:#F3903F"/>
			<stop  offset="0.8" style="stop-color:#ED683C"/>
			<stop  offset="1" style="stop-color:#E93E3A"/>
		</linearGradient>
		<path style="fill:url(#SVGID_15_);" d="M112.776,483.327H64.444c-8.898,0-16.111,7.213-16.111,16.111v48.333
			c0,8.898,7.213,16.111,16.111,16.111h48.333c8.898,0,16.111-7.213,16.111-16.111v-48.333
			C128.887,490.54,121.674,483.327,112.776,483.327z M96.665,531.659H80.554v-16.111h16.111V531.659z"/>
		
			<linearGradient id="SVGID_16_" gradientUnits="userSpaceOnUse" x1="185.2752" y1="834.3115" x2="185.2752" y2="103.9566" gradientTransform="matrix(1 0 0 -1 0 949.7782)">
			<stop  offset="0" style="stop-color:#FFF33B"/>
			<stop  offset="0.014" style="stop-color:#FEE72E"/>
			<stop  offset="0.042" style="stop-color:#FED51B"/>
			<stop  offset="0.07" style="stop-color:#FDCA10"/>
			<stop  offset="0.1" style="stop-color:#FDC70C"/>
			<stop  offset="0.4" style="stop-color:#F3903F"/>
			<stop  offset="0.8" style="stop-color:#ED683C"/>
			<stop  offset="1" style="stop-color:#E93E3A"/>
		</linearGradient>
		<path style="fill:url(#SVGID_16_);" d="M209.442,483.327h-48.333c-8.898,0-16.111,7.213-16.111,16.111v48.333
			c0,8.898,7.213,16.111,16.111,16.111h48.333c8.898,0,16.111-7.213,16.111-16.111v-48.333
			C225.552,490.54,218.339,483.327,209.442,483.327z M193.331,531.659H177.22v-16.111h16.111V531.659z"/>
		
			<linearGradient id="SVGID_17_" gradientUnits="userSpaceOnUse" x1="475.2712" y1="834.3115" x2="475.2712" y2="103.9566" gradientTransform="matrix(1 0 0 -1 0 949.7782)">
			<stop  offset="0" style="stop-color:#FFF33B"/>
			<stop  offset="0.014" style="stop-color:#FEE72E"/>
			<stop  offset="0.042" style="stop-color:#FED51B"/>
			<stop  offset="0.07" style="stop-color:#FDCA10"/>
			<stop  offset="0.1" style="stop-color:#FDC70C"/>
			<stop  offset="0.4" style="stop-color:#F3903F"/>
			<stop  offset="0.8" style="stop-color:#ED683C"/>
			<stop  offset="1" style="stop-color:#E93E3A"/>
		</linearGradient>
		<path style="fill:url(#SVGID_17_);" d="M451.105,660.546h48.333c8.898,0,16.111-7.213,16.111-16.111v-48.333
			c0-8.898-7.213-16.111-16.111-16.111h-48.333c-8.898,0-16.111,7.213-16.111,16.111v48.333
			C434.994,653.333,442.207,660.546,451.105,660.546z M467.216,612.214h16.111v16.111h-16.111V612.214z"/>
		
			<linearGradient id="SVGID_18_" gradientUnits="userSpaceOnUse" x1="571.9365" y1="834.3115" x2="571.9365" y2="103.9566" gradientTransform="matrix(1 0 0 -1 0 949.7782)">
			<stop  offset="0" style="stop-color:#FFF33B"/>
			<stop  offset="0.014" style="stop-color:#FEE72E"/>
			<stop  offset="0.042" style="stop-color:#FED51B"/>
			<stop  offset="0.07" style="stop-color:#FDCA10"/>
			<stop  offset="0.1" style="stop-color:#FDC70C"/>
			<stop  offset="0.4" style="stop-color:#F3903F"/>
			<stop  offset="0.8" style="stop-color:#ED683C"/>
			<stop  offset="1" style="stop-color:#E93E3A"/>
		</linearGradient>
		<path style="fill:url(#SVGID_18_);" d="M547.77,660.546h48.333c8.898,0,16.111-7.213,16.111-16.111v-48.333
			c0-8.898-7.213-16.111-16.111-16.111H547.77c-8.898,0-16.111,7.213-16.111,16.111v48.333
			C531.659,653.333,538.872,660.546,547.77,660.546z M563.881,612.214h16.111v16.111h-16.111V612.214z"/>
		
			<linearGradient id="SVGID_19_" gradientUnits="userSpaceOnUse" x1="475.2712" y1="834.3115" x2="475.2712" y2="103.9566" gradientTransform="matrix(1 0 0 -1 0 949.7782)">
			<stop  offset="0" style="stop-color:#FFF33B"/>
			<stop  offset="0.014" style="stop-color:#FEE72E"/>
			<stop  offset="0.042" style="stop-color:#FED51B"/>
			<stop  offset="0.07" style="stop-color:#FDCA10"/>
			<stop  offset="0.1" style="stop-color:#FDC70C"/>
			<stop  offset="0.4" style="stop-color:#F3903F"/>
			<stop  offset="0.8" style="stop-color:#ED683C"/>
			<stop  offset="1" style="stop-color:#E93E3A"/>
		</linearGradient>
		<path style="fill:url(#SVGID_19_);" d="M434.994,547.77c0,8.898,7.213,16.111,16.111,16.111h48.333
			c8.898,0,16.111-7.213,16.111-16.111v-48.333c0-8.898-7.213-16.111-16.111-16.111h-48.333c-8.898,0-16.111,7.213-16.111,16.111
			V547.77z M467.216,515.548h16.111v16.111h-16.111V515.548z"/>
		
			<linearGradient id="SVGID_20_" gradientUnits="userSpaceOnUse" x1="571.9365" y1="834.3115" x2="571.9365" y2="103.9566" gradientTransform="matrix(1 0 0 -1 0 949.7782)">
			<stop  offset="0" style="stop-color:#FFF33B"/>
			<stop  offset="0.014" style="stop-color:#FEE72E"/>
			<stop  offset="0.042" style="stop-color:#FED51B"/>
			<stop  offset="0.07" style="stop-color:#FDCA10"/>
			<stop  offset="0.1" style="stop-color:#FDC70C"/>
			<stop  offset="0.4" style="stop-color:#F3903F"/>
			<stop  offset="0.8" style="stop-color:#ED683C"/>
			<stop  offset="1" style="stop-color:#E93E3A"/>
		</linearGradient>
		<path style="fill:url(#SVGID_20_);" d="M547.77,563.881h48.333c8.898,0,16.111-7.213,16.111-16.111v-48.333
			c0-8.898-7.213-16.111-16.111-16.111H547.77c-8.898,0-16.111,7.213-16.111,16.111v48.333
			C531.659,556.668,538.872,563.881,547.77,563.881z M563.881,515.548h16.111v16.111h-16.111V515.548z"/>
		
			<linearGradient id="SVGID_21_" gradientUnits="userSpaceOnUse" x1="676.6573" y1="834.3115" x2="676.6573" y2="103.9566" gradientTransform="matrix(1 0 0 -1 0 949.7782)">
			<stop  offset="0" style="stop-color:#FFF33B"/>
			<stop  offset="0.014" style="stop-color:#FEE72E"/>
			<stop  offset="0.042" style="stop-color:#FED51B"/>
			<stop  offset="0.07" style="stop-color:#FDCA10"/>
			<stop  offset="0.1" style="stop-color:#FDC70C"/>
			<stop  offset="0.4" style="stop-color:#F3903F"/>
			<stop  offset="0.8" style="stop-color:#ED683C"/>
			<stop  offset="1" style="stop-color:#E93E3A"/>
		</linearGradient>
		<path style="fill:url(#SVGID_21_);" d="M644.436,660.546h64.444c8.898,0,16.111-7.213,16.111-16.111V547.77
			c0-8.898-7.213-16.111-16.111-16.111h-64.444c-8.898,0-16.111,7.213-16.111,16.111v96.665
			C628.325,653.333,635.538,660.546,644.436,660.546z M660.546,563.881h32.222v64.444h-32.222V563.881z"/>
		
			<linearGradient id="SVGID_22_" gradientUnits="userSpaceOnUse" x1="829.7108" y1="834.3115" x2="829.7108" y2="103.9566" gradientTransform="matrix(1 0 0 -1 0 949.7782)">
			<stop  offset="0" style="stop-color:#FFF33B"/>
			<stop  offset="0.014" style="stop-color:#FEE72E"/>
			<stop  offset="0.042" style="stop-color:#FED51B"/>
			<stop  offset="0.07" style="stop-color:#FDCA10"/>
			<stop  offset="0.1" style="stop-color:#FDC70C"/>
			<stop  offset="0.4" style="stop-color:#F3903F"/>
			<stop  offset="0.8" style="stop-color:#ED683C"/>
			<stop  offset="1" style="stop-color:#E93E3A"/>
		</linearGradient>
		<path style="fill:url(#SVGID_22_);" d="M757.212,563.881H902.21c8.898,0,16.111-7.213,16.111-16.111v-64.444
			c0-8.898-7.213-16.111-16.111-16.111H757.212c-8.898,0-16.111,7.213-16.111,16.111v64.444
			C741.101,556.668,748.314,563.881,757.212,563.881z M773.323,499.438h112.776v32.222H773.323V499.438z"/>
	</g>
</g>
<g>
</g>
<g>
</g>
<g>
</g>
<g>
</g>
<g>
</g>
<g>
</g>
<g>
</g>
<g>
</g>
<g>
</g>
<g>
</g>
<g>
</g>
<g>
</g>
<g>
</g>
<g>
</g>
<g>
</g>
</svg>
